<?xml version="1.0" standalone="no"?>
<!DOCTYPE svg PUBLIC "-//W3C//DTD SVG 20010904//EN"
 "http://www.w3.org/TR/2001/REC-SVG-20010904/DTD/svg10.dtd">
<svg version="1.0" xmlns="http://www.w3.org/2000/svg"
 width="250.000000pt" height="150.000000pt" viewBox="0 0 250.000000 150.000000"
 preserveAspectRatio="xMidYMid meet">
<metadata>
Created by potrace 1.16, written by Peter Selinger 2001-2019
</metadata>
<g transform="translate(0.000000,150.000000) scale(0.100000,-0.100000)"
fill="#000000" stroke="none">
<path d="M1265 1356 c-159 -40 -300 -175 -378 -362 -66 -156 -56 -286 26 -373
64 -67 164 -91 306 -71 151 21 263 78 339 172 37 47 40 67 13 99 l-20 24 -30
-36 c-66 -79 -215 -146 -299 -135 -92 12 -142 64 -142 148 l0 46 103 4 c75 3
117 10 160 27 107 42 200 163 202 261 0 41 -2 45 -23 43 -13 -2 -25 4 -28 12
-4 8 -12 15 -19 15 -21 0 -45 58 -38 92 4 20 1 33 -8 39 -20 12 -105 10 -164
-5z m98 -136 c-2 -56 -76 -205 -115 -233 -15 -11 -50 -22 -78 -25 -51 -5 -52
-4 -45 19 4 13 31 65 60 115 65 109 127 177 158 172 19 -3 22 -9 20 -48z"/>
<path d="M1570 491 l0 -48 -48 5 c-41 4 -51 1 -75 -23 -15 -15 -27 -34 -27
-41 0 -11 -5 -11 -25 -2 -16 7 -25 19 -25 34 0 45 -87 49 -131 5 -25 -25 -29
-37 -29 -81 0 -44 4 -56 29 -81 40 -40 109 -41 147 -4 14 14 24 31 21 38 -5
16 -46 22 -60 8 -16 -16 -52 -13 -67 4 -11 13 -4 15 58 15 68 0 70 -1 82 -29
19 -47 46 -65 93 -64 23 1 59 2 80 2 l37 0 0 156 0 155 -30 0 c-29 0 -30 -1
-30 -49z"/>
<path d="M1770 385 l0 -156 38 0 c20 0 56 -1 80 -2 33 -1 48 5 68 25 50 49 40
158 -18 189 -11 6 -41 9 -64 6 l-44 -5 0 49 c0 48 -1 49 -30 49 l-30 0 0 -155z"/>
<path d="M2010 385 l0 -155 35 0 35 0 0 155 0 155 -35 0 -35 0 0 -155z"/>
<path d="M60 375 l0 -155 35 0 35 0 0 64 c0 80 6 96 35 96 27 0 35 -22 35
-102 0 -58 0 -58 30 -58 l30 0 0 80 c0 119 -22 149 -100 138 -30 -5 -30 -4
-30 44 l0 48 -35 0 -35 0 0 -155z"/>
<path d="M640 375 l0 -155 30 0 30 0 0 69 c0 72 16 106 44 95 19 -7 26 -37 26
-106 0 -58 0 -58 30 -58 l30 0 0 80 c0 119 -22 149 -100 138 -30 -5 -30 -4
-30 44 0 47 -1 48 -30 48 l-30 0 0 -155z"/>
<path d="M870 375 l0 -155 30 0 30 0 0 155 0 155 -30 0 -30 0 0 -155z"/>
<path d="M1667 443 c-4 -3 -7 -53 -7 -110 l0 -103 35 0 35 0 0 110 0 110 -28
0 c-16 0 -32 -3 -35 -7z"/>
<path d="M2139 421 c-25 -25 -29 -37 -29 -84 0 -45 4 -59 26 -80 35 -35 82
-43 128 -22 39 19 56 52 35 66 -21 13 -45 11 -59 -6 -17 -20 -33 -19 -55 5
-18 20 -17 20 58 20 85 0 89 4 66 68 -14 40 -49 62 -99 62 -33 0 -48 -6 -71
-29z"/>
<path d="M2362 434 c-30 -21 -31 -87 -2 -107 22 -15 17 -27 -12 -27 -33 0 -18
-44 23 -65 36 -19 63 -19 100 1 28 14 30 19 27 62 -3 46 -4 47 -48 61 -55 17
-57 18 -41 34 10 9 15 8 26 -6 9 -13 20 -16 39 -11 57 14 14 74 -54 74 -20 0
-46 -7 -58 -16z"/>
<path d="M434 428 c-49 -23 -64 -121 -24 -162 25 -27 25 -36 2 -36 -27 0 -32
-9 -19 -37 32 -70 163 -69 195 2 7 15 12 72 12 134 l0 109 -72 0 c-40 0 -83
-5 -94 -10z"/>
<path d="M949 417 c5 -13 25 -55 45 -95 l37 -71 -26 -50 -25 -51 37 0 38 0 49
113 c27 61 55 127 63 145 l14 33 -37 -3 c-35 -3 -38 -6 -58 -58 l-20 -54 -25
57 c-23 55 -25 57 -62 57 -36 0 -38 -1 -30 -23z"/>
</g>
</svg>
